<svg version="1.1" id="Layer_1" xmlns="http://www.w3.org/2000/svg" xmlns:xlink="http://www.w3.org/1999/xlink" x="0px" y="0px"
	 width="12.545px" height="11.99px" viewBox="521.939 473.065 12.545 11.99" enable-background="new 521.939 473.065 12.545 11.99"
	 xml:space="preserve">

<path class="inner" fill="currentColor" d="M530.685,474.533c-0.729,0-1.421,0.344-1.9,0.943c-0.142,0.178-0.353,0.267-0.585,0.275
	c-0.227-0.003-0.439-0.111-0.575-0.294c-0.441-0.587-1.129-0.925-1.887-0.925c-1.285,0-2.33,1.046-2.33,2.331
	c0,0.678,0.275,1.171,0.507,1.467c0.004,0.006,0.01,0.012,0.014,0.019c0.208,0.255,2.471,2.839,4.243,4.858l4.323-4.944
	c0.34-0.369,0.52-0.86,0.52-1.399C533.015,475.579,531.97,474.533,530.685,474.533z"/>

<path class="outer" fill="#d22856" d="M530.685,473.065c-0.903,0-1.767,0.32-2.463,0.898c-0.68-0.578-1.55-0.898-2.484-0.898
	c-2.095,0-3.799,1.704-3.799,3.799c0,0.855,0.292,1.698,0.821,2.373l0.004-0.003c0.214,0.274,1.06,1.248,4.858,5.572
	c0.14,0.158,0.34,0.249,0.552,0.249c0.212,0,0.413-0.091,0.554-0.249l4.86-5.561c0.578-0.627,0.896-1.472,0.896-2.381
	C534.484,474.769,532.78,473.065,530.685,473.065z M532.495,478.263l-4.323,4.944c-1.772-2.019-4.035-4.603-4.243-4.858
	c-0.004-0.007-0.01-0.013-0.014-0.019c-0.232-0.296-0.507-0.789-0.507-1.467c0-1.285,1.045-2.331,2.33-2.331
	c0.758,0,1.446,0.338,1.887,0.925c0.136,0.183,0.348,0.291,0.575,0.294c0.232-0.008,0.443-0.097,0.585-0.275
	c0.479-0.599,1.171-0.943,1.9-0.943c1.285,0,2.33,1.046,2.33,2.331C533.015,477.403,532.835,477.894,532.495,478.263z"/>
</svg>
